<?xml version="1.0" encoding="UTF-8"?>
<svg xmlns="http://www.w3.org/2000/svg" xmlns:xlink="http://www.w3.org/1999/xlink" width="410.78pt" height="122.92pt" viewBox="0 0 410.78 122.92" version="1.1">
<!-- <defs>
<clipPath id="clip1">
  <path d="M 1 70 L 408 70 L 408 122.921875 L 1 122.921875 Z M 1 70 "/>
</clipPath>
<clipPath id="clip2">
  <path d="M 0 68 L 410.78125 68 L 410.78125 100 L 0 100 Z M 0 68 "/>
</clipPath>
</defs> -->
<g id="surface1">
<path style=" stroke:none;fill-rule:nonzero;fill:rgb(92.89856%,0%,50.19989%);fill-opacity:1;" d="M 13.839844 11.316406 L 13.839844 45.902344 L 13.800781 49.921875 L 13.921875 53.40625 C 14.226563 56.753906 15.464844 58.703125 17.636719 59.253906 C 19.148438 59.667969 20.292969 59.875 21.0625 59.875 C 21.886719 59.875 22.3125 60.117188 22.339844 60.59375 C 22.394531 61.28125 21.914063 61.625 20.894531 61.625 C 20.425781 61.625 2.160156 61.625 1.664063 61.625 C 0.949219 61.625 0.589844 61.359375 0.589844 60.832031 C 0.589844 60.328125 1.039063 60.007813 1.941406 59.875 C 4.070313 59.546875 5.523438 58.332031 6.300781 56.238281 C 7.078125 54.144531 7.464844 50.371094 7.464844 44.914063 L 7.464844 19.824219 C 7.464844 14.039063 7.121094 10.378906 6.433594 8.851563 C 5.746094 7.320313 4.03125 6.40625 1.285156 6.101563 C 0.542969 6.042969 0.1875 5.757813 0.214844 5.242188 C 0.242188 4.582031 0.78125 4.25 1.828125 4.25 C 2.351563 4.25 3.050781 4.324219 3.933594 4.472656 C 5.667969 4.742188 7.101563 4.875 8.230469 4.875 C 9.992188 4.875 12.554688 4.734375 15.917969 4.445313 C 17.652344 4.316406 19.070313 4.25 20.171875 4.25 C 25.929688 4.25 30.605469 5.636719 34.199219 8.40625 C 37.792969 11.175781 39.589844 14.789063 39.589844 19.257813 C 39.589844 24.660156 37.394531 28.914063 33.003906 32.027344 C 29.710938 34.34375 26.226563 35.5 22.550781 35.5 C 20.820313 35.5 19.234375 35.324219 17.792969 34.96875 C 16.351563 34.613281 15.714844 34.429688 15.714844 33.828125 C 15.714844 33.222656 16.03125 33.335938 16.496094 33.335938 C 16.714844 33.335938 16.984375 33.378906 17.3125 33.460938 C 17.941406 33.65625 18.953125 33.75 20.347656 33.75 C 24.28125 33.75 27.429688 32.652344 29.792969 30.453125 C 32.15625 28.257813 33.339844 25.335938 33.339844 21.691406 C 33.339844 17.492188 31.777344 14.011719 28.652344 11.257813 C 25.523438 8.503906 21.5625 7.125 16.761719 7.125 C 15.664063 7.125 14.910156 7.335938 14.5 7.75 C 14.085938 8.164063 13.882813 8.953125 13.882813 10.113281 L 13.839844 11.316406 "/>
<path style=" stroke:none;fill-rule:nonzero;fill:rgb(92.89856%,0%,50.19989%);fill-opacity:1;" d="M 43.351563 38.375 L 57.441406 38.375 C 59.628906 38.375 60.726563 37.941406 60.726563 37.066406 C 60.726563 34.933594 59.789063 32.953125 57.917969 31.121094 C 56.046875 29.292969 54.019531 28.375 51.832031 28.375 C 49.558594 28.375 47.664063 29.273438 46.15625 31.0625 C 44.644531 32.851563 43.710938 35.289063 43.351563 38.375 Z M 43.140625 40.75 L 43.101563 41.65625 C 43.101563 46.339844 44.402344 50.273438 47.003906 53.464844 C 49.605469 56.65625 52.808594 58.25 56.609375 58.25 C 59.613281 58.25 62.875 56.890625 66.402344 54.167969 C 66.621094 54 66.828125 53.902344 67.023438 53.875 C 67.40625 53.847656 67.601563 54.070313 67.601563 54.535156 C 67.601563 55.363281 66.636719 56.53125 64.707031 58.042969 C 61.125 60.847656 57.335938 62.25 53.34375 62.25 C 48.851563 62.25 45.085938 60.550781 42.042969 57.152344 C 38.996094 53.75 37.476563 49.539063 37.476563 44.519531 C 37.476563 39.75 39.046875 35.574219 42.191406 31.996094 C 45.335938 28.417969 49.019531 26.625 53.242188 26.625 C 57.847656 26.625 61.53125 28.539063 64.289063 32.367188 C 64.949219 33.304688 65.625 34.570313 66.316406 36.167969 C 67.003906 37.765625 67.351563 38.878906 67.351563 39.511719 C 67.351563 40.421875 66.453125 40.875 64.660156 40.875 L 61.597656 40.832031 L 58.785156 40.75 L 43.140625 40.75 "/>
<path style=" stroke:none;fill-rule:nonzero;fill:rgb(92.89856%,0%,50.19989%);fill-opacity:1;" d="M 81.285156 34.125 C 84.507813 29.125 87.476563 26.625 90.199219 26.625 C 91.0625 26.625 92.195313 27.136719 93.597656 28.152344 C 95 29.167969 95.726563 29.992188 95.785156 30.625 C 95.8125 31.027344 95.371094 31.765625 94.460938 32.84375 C 93.550781 33.921875 92.90625 34.476563 92.519531 34.5 C 92.328125 34.5 91.722656 34.1875 90.703125 33.554688 C 89.519531 32.769531 88.390625 32.375 87.316406 32.375 C 85.636719 32.375 84.230469 32.984375 83.101563 34.199219 C 81.972656 35.417969 81.410156 36.933594 81.410156 38.75 L 81.410156 53.484375 C 81.410156 55.796875 81.71875 57.4375 82.335938 58.414063 C 82.953125 59.390625 84.03125 59.949219 85.570313 60.085938 L 87.714844 60.25 C 88.59375 60.304688 89.035156 60.578125 89.035156 61.0625 C 89.035156 61.605469 88.648438 61.875 87.878906 61.875 C 87.683594 61.875 73.046875 61.851563 72.773438 61.875 C 72.03125 61.902344 71.660156 61.652344 71.660156 61.121094 C 71.660156 60.691406 72.074219 60.402344 72.910156 60.25 C 74.070313 59.976563 74.816406 59.464844 75.152344 58.71875 C 75.488281 57.976563 75.660156 56.390625 75.660156 53.964844 L 75.660156 36.21875 C 75.660156 33.046875 74.148438 31.457031 71.128906 31.457031 L 69.730469 31.5 C 69.097656 31.5 68.785156 31.214844 68.785156 30.644531 C 68.785156 30.304688 68.988281 30.046875 69.402344 29.875 C 69.648438 29.820313 69.949219 29.777344 70.304688 29.75 C 72.882813 29.5 75.925781 28.28125 79.433594 26.085938 C 79.789063 25.890625 80.105469 25.777344 80.378906 25.75 C 81.007813 25.722656 81.324219 26.195313 81.324219 27.160156 L 81.285156 27.949219 L 81.285156 34.125 "/>
<path style=" stroke:none;fill-rule:nonzero;fill:rgb(92.89856%,0%,50.19989%);fill-opacity:1;" d="M 110.449219 26.625 C 112.628906 26.625 114.503906 26.914063 116.078125 27.488281 L 117.902344 28.105469 C 118.644531 28.378906 119.019531 28.800781 119.019531 29.375 L 119.019531 30.035156 C 119.019531 30.417969 119.046875 30.804688 119.101563 31.1875 L 119.269531 32.792969 C 119.351563 33.367188 119.394531 33.890625 119.394531 34.355469 C 119.394531 35.425781 119.082031 35.972656 118.457031 36 C 118.113281 36.03125 117.800781 35.671875 117.519531 34.921875 C 115.996094 30.726563 113.140625 28.625 108.960938 28.625 C 107.296875 28.625 105.933594 29.097656 104.867188 30.035156 C 103.800781 30.976563 103.269531 32.164063 103.269531 33.601563 C 103.269531 35.125 103.847656 36.355469 105.011719 37.292969 C 106.171875 38.234375 108.488281 39.382813 111.964844 40.734375 C 115.410156 42.078125 117.800781 43.492188 119.136719 44.984375 C 120.472656 46.476563 121.144531 48.484375 121.144531 51 C 121.144531 54.09375 119.988281 56.742188 117.683594 58.945313 C 115.378906 61.148438 112.621094 62.25 109.417969 62.25 C 107.125 62.25 104.636719 61.609375 101.960938 60.324219 C 101.320313 60.023438 100.921875 59.875 100.757813 59.875 L 99.679688 59.75 C 99.042969 59.695313 98.699219 59.355469 98.644531 58.730469 L 98.613281 56.972656 L 98.519531 51.746094 L 98.605469 50.519531 C 98.722656 49.785156 99.050781 49.402344 99.582031 49.375 C 100.113281 49.347656 100.464844 49.761719 100.644531 50.613281 C 101.222656 53.632813 102.34375 55.996094 104.011719 57.699219 C 105.679688 59.402344 107.6875 60.25 110.03125 60.25 C 112.042969 60.25 113.6875 59.65625 114.96875 58.464844 C 116.253906 57.277344 116.894531 55.753906 116.894531 53.902344 C 116.894531 51.078125 115.304688 48.976563 112.128906 47.59375 L 108.492188 45.972656 C 105.183594 44.550781 102.839844 43.078125 101.460938 41.558594 C 100.082031 40.039063 99.394531 38.183594 99.394531 35.992188 C 99.394531 33.363281 100.457031 31.144531 102.582031 29.335938 C 104.707031 27.53125 107.328125 26.625 110.449219 26.625 "/>
<path style=" stroke:none;fill-rule:nonzero;fill:rgb(92.89856%,0%,50.19989%);fill-opacity:1;" d="M 141.007813 28.25 C 137.570313 28.25 134.796875 29.527344 132.695313 32.074219 C 130.589844 34.625 129.539063 37.96875 129.539063 42.101563 C 129.539063 47.367188 130.851563 51.769531 133.480469 55.3125 C 136.105469 58.855469 139.371094 60.625 143.277344 60.625 C 146.6875 60.625 149.375 59.371094 151.339844 56.863281 C 153.304688 54.355469 154.289063 50.953125 154.289063 46.652344 C 154.289063 41.222656 153.050781 36.796875 150.578125 33.378906 C 148.101563 29.960938 144.910156 28.25 141.007813 28.25 Z M 142.058594 26.625 C 147.019531 26.625 151.277344 28.363281 154.835938 31.832031 C 158.386719 35.300781 160.164063 39.433594 160.164063 44.234375 C 160.164063 49.445313 158.414063 53.75 154.914063 57.152344 C 151.414063 60.550781 146.992188 62.25 141.644531 62.25 C 136.410156 62.25 132.101563 60.597656 128.726563 57.292969 C 125.351563 53.988281 123.664063 49.757813 123.664063 44.601563 C 123.664063 39.613281 125.457031 35.367188 129.039063 31.871094 C 132.621094 28.375 136.964844 26.625 142.058594 26.625 "/>
<path style=" stroke:none;fill-rule:nonzero;fill:rgb(92.89856%,0%,50.19989%);fill-opacity:1;" d="M 171.675781 33.25 C 175.378906 28.835938 179.222656 26.625 183.203125 26.625 C 187.625 26.625 191.121094 28.433594 193.691406 32.050781 C 195.460938 34.535156 196.34375 38.316406 196.34375 43.394531 L 196.34375 53.292969 L 196.304688 54.535156 L 196.429688 56.519531 C 196.730469 58.34375 197.890625 59.40625 199.902344 59.710938 L 201.644531 59.957031 C 202.390625 60.0625 202.773438 60.328125 202.804688 60.753906 C 202.828125 61.335938 202.375 61.625 201.4375 61.625 C 201.136719 61.625 187.921875 61.625 187.921875 61.625 L 187.339844 61.496094 C 187.148438 61.378906 187.050781 61.160156 187.050781 60.835938 C 187.050781 60.398438 187.296875 60.117188 187.796875 60 L 189.027344 59.667969 C 190.128906 59.394531 190.675781 58.398438 190.675781 56.6875 L 190.675781 42.390625 C 190.675781 38.550781 189.796875 35.589844 188.03125 33.503906 C 186.269531 31.417969 183.765625 30.375 180.515625 30.375 C 178.230469 30.375 176.199219 31.0625 174.425781 32.429688 C 172.648438 33.800781 171.761719 35.367188 171.761719 37.125 L 171.761719 52.886719 L 171.800781 54.128906 L 171.84375 56.195313 C 171.980469 58.511719 173.886719 59.78125 177.566406 60 C 178.472656 60.085938 178.925781 60.375 178.925781 60.875 C 178.925781 61.375 178.609375 61.625 177.972656 61.625 C 177.503906 61.625 162.671875 61.625 162.421875 61.625 C 161.898438 61.625 161.648438 61.398438 161.675781 60.941406 C 161.703125 60.597656 161.96875 60.328125 162.46875 60.125 C 163.882813 59.632813 164.835938 59.027344 165.320313 58.3125 C 165.808594 57.601563 166.050781 56.445313 166.050781 54.851563 L 166.050781 36.234375 C 166.050781 34.285156 165.816406 32.960938 165.351563 32.261719 C 164.886719 31.5625 164.007813 31.210938 162.722656 31.210938 L 160.953125 31.25 C 160.710938 31.25 160.488281 31.191406 160.296875 31.074219 C 160.050781 30.957031 159.925781 30.753906 159.925781 30.460938 C 159.925781 30.050781 160.28125 29.773438 160.996094 29.625 C 162.828125 29.296875 164.59375 28.734375 166.296875 27.9375 L 168.472656 26.863281 C 169.320313 26.453125 169.855469 26.191406 170.074219 26.082031 C 170.460938 25.863281 170.785156 25.75 171.058594 25.75 C 171.554688 25.75 171.773438 26.15625 171.71875 26.960938 C 171.691406 27.40625 171.675781 27.933594 171.675781 28.542969 L 171.675781 33.25 "/>
<path style=" stroke:none;fill-rule:nonzero;fill:rgb(92.89856%,0%,50.19989%);fill-opacity:1;" d="M 222.453125 44.625 C 218.1875 45.011719 214.890625 45.976563 212.566406 47.523438 C 210.242188 49.070313 209.078125 51.050781 209.078125 53.460938 C 209.078125 55.351563 209.632813 56.851563 210.738281 57.960938 C 211.847656 59.070313 213.347656 59.625 215.234375 59.625 C 217.53125 59.625 219.460938 58.882813 221.019531 57.390625 C 221.976563 56.441406 222.453125 54.9375 222.453125 52.875 Z M 222.453125 43 L 222.453125 37.984375 C 222.453125 34.882813 221.859375 32.742188 220.675781 31.554688 C 219.074219 29.9375 216.921875 29.125 214.21875 29.125 C 210.570313 29.125 208.753906 30.636719 208.753906 33.65625 C 208.753906 34.546875 208.933594 35.570313 209.289063 36.730469 C 209.453125 37.214844 209.554688 37.644531 209.578125 38.023438 C 209.605469 38.507813 209.335938 38.75 208.765625 38.75 C 207.484375 38.75 206.320313 38.476563 205.273438 37.929688 C 204.230469 37.382813 203.703125 36.78125 203.703125 36.125 C 203.703125 34.425781 204.628906 32.589844 206.480469 30.613281 C 208.960938 27.957031 212.257813 26.625 216.367188 26.625 C 220.121094 26.625 223.03125 27.457031 225.101563 29.117188 C 227.171875 30.78125 228.203125 33.121094 228.203125 36.140625 L 228.203125 52.289063 C 228.203125 54.84375 228.519531 56.664063 229.144531 57.75 C 229.769531 58.835938 230.816406 59.375 232.289063 59.375 C 232.703125 59.375 233.039063 59.351563 233.289063 59.304688 C 233.789063 59.1875 234.121094 59.125 234.289063 59.125 C 234.761719 59.097656 234.980469 59.308594 234.953125 59.75 C 234.929688 60.242188 234.269531 60.742188 232.988281 61.246094 C 231.710938 61.746094 230.453125 62 229.230469 62 C 226.941406 62 224.882813 60.585938 223.042969 57.75 C 219.046875 60.75 215.34375 62.25 211.925781 62.25 C 209.335938 62.25 207.277344 61.554688 205.746094 60.164063 C 204.21875 58.773438 203.453125 56.910156 203.453125 54.566406 C 203.453125 51.402344 204.898438 48.945313 207.789063 47.195313 C 210.683594 45.445313 215.570313 44.046875 222.453125 43 "/>
<path style=" stroke:none;fill-rule:nonzero;fill:rgb(92.89856%,0%,50.19989%);fill-opacity:1;" d="M 246.472656 3.117188 L 246.472656 51.855469 C 246.472656 54.128906 246.730469 55.875 247.257813 57.09375 C 247.863281 58.476563 249.578125 59.40625 252.394531 59.875 C 253.167969 60.007813 253.566406 60.289063 253.597656 60.710938 C 253.621094 61.320313 253.332031 61.625 252.726563 61.625 C 252.480469 61.625 237.792969 61.625 237.628906 61.625 C 236.910156 61.625 236.539063 61.367188 236.511719 60.847656 C 236.484375 60.40625 236.859375 60.082031 237.644531 59.875 C 238.859375 59.515625 239.675781 59.039063 240.09375 58.445313 C 240.511719 57.847656 240.722656 56.886719 240.722656 55.554688 L 240.722656 9.488281 C 240.722656 6.941406 239.84375 5.664063 238.09375 5.664063 L 236.035156 5.75 C 235.765625 5.75 235.527344 5.722656 235.339844 5.664063 C 235.011719 5.53125 234.847656 5.308594 234.847656 5 C 234.847656 4.613281 235.203125 4.320313 235.925781 4.125 C 236.863281 3.90625 237.722656 3.644531 238.5 3.34375 L 241.03125 2.3125 C 242.96875 1.539063 244.3125 0.882813 245.058594 0.332031 C 245.390625 0.113281 245.664063 0 245.890625 0 C 246.304688 -0.0273438 246.511719 0.582031 246.511719 1.828125 L 246.472656 3.117188 "/>
<path style=" stroke:none;fill-rule:nonzero;fill:rgb(92.89856%,0%,50.19989%);fill-opacity:1;" d="M 314.316406 30.574219 L 315.6875 40.511719 L 315.816406 41.546875 L 315.691406 41.960938 C 315.550781 42.210938 315.34375 42.347656 315.066406 42.375 C 314.730469 42.402344 314.230469 41.828125 313.566406 40.644531 C 308.398438 31.632813 301.398438 27.125 292.5625 27.125 C 285.519531 27.125 279.964844 29.28125 275.90625 33.59375 C 271.847656 37.902344 269.816406 43.792969 269.816406 51.261719 C 269.816406 59.855469 272.074219 66.878906 276.589844 72.328125 C 281.105469 77.777344 286.914063 80.5 294.015625 80.5 C 298.15625 80.5 302.230469 79.386719 306.238281 77.15625 C 310.242188 74.929688 313.019531 72.226563 314.566406 69.050781 C 315.300781 67.574219 315.867188 66.820313 316.265625 66.792969 C 316.714844 66.765625 316.941406 67.03125 316.941406 67.59375 L 316.898438 68.054688 L 316.726563 68.980469 L 315.738281 74.117188 L 315.566406 74.875 C 315.453125 75.597656 314.808594 76.347656 313.621094 77.125 C 307.25 81.210938 300.230469 83.25 292.5625 83.25 C 283.683594 83.25 276.523438 80.621094 271.09375 75.359375 C 265.65625 70.101563 262.941406 63.171875 262.941406 54.578125 C 262.941406 45.984375 265.753906 38.84375 271.378906 33.15625 C 277.003906 27.46875 284.0625 24.625 292.5625 24.625 C 298.378906 24.625 303.730469 25.941406 308.609375 28.566406 L 310.265625 29.4375 L 310.929688 29.726563 L 311.632813 29.976563 C 311.769531 29.976563 311.972656 29.867188 312.242188 29.644531 C 312.839844 29.214844 313.246094 29 313.464844 29 C 313.894531 29 314.179688 29.527344 314.316406 30.574219 "/>
<path style=" stroke:none;fill-rule:nonzero;fill:rgb(92.89856%,0%,50.19989%);fill-opacity:1;" d="M 341.257813 65.625 C 336.988281 66.011719 333.691406 66.976563 331.367188 68.523438 C 329.046875 70.070313 327.882813 72.050781 327.882813 74.460938 C 327.882813 76.351563 328.4375 77.851563 329.542969 78.960938 C 330.648438 80.070313 332.148438 80.625 334.035156 80.625 C 336.335938 80.625 338.261719 79.882813 339.820313 78.390625 C 340.777344 77.441406 341.257813 75.9375 341.257813 73.875 Z M 341.257813 64 L 341.257813 58.984375 C 341.257813 55.882813 340.664063 53.742188 339.480469 52.554688 C 337.878906 50.9375 335.722656 50.125 333.019531 50.125 C 329.375 50.125 327.554688 51.636719 327.554688 54.65625 C 327.554688 55.546875 327.734375 56.570313 328.09375 57.730469 C 328.257813 58.214844 328.355469 58.644531 328.382813 59.023438 C 328.410156 59.507813 328.136719 59.75 327.566406 59.75 C 326.285156 59.75 325.125 59.476563 324.078125 58.929688 C 323.03125 58.382813 322.507813 57.78125 322.507813 57.125 C 322.507813 55.425781 323.433594 53.589844 325.28125 51.613281 C 327.765625 48.957031 331.0625 47.625 335.171875 47.625 C 338.925781 47.625 341.835938 48.457031 343.902344 50.117188 C 345.972656 51.78125 347.007813 54.121094 347.007813 57.140625 L 347.007813 73.289063 C 347.007813 75.84375 347.320313 77.664063 347.945313 78.75 C 348.570313 79.835938 349.617188 80.375 351.09375 80.375 C 351.507813 80.375 351.84375 80.351563 352.09375 80.304688 C 352.59375 80.1875 352.925781 80.125 353.09375 80.125 C 353.5625 80.097656 353.785156 80.308594 353.757813 80.75 C 353.730469 81.242188 353.074219 81.742188 351.792969 82.246094 C 350.511719 82.746094 349.257813 83 348.03125 83 C 345.746094 83 343.683594 81.585938 341.847656 78.75 C 337.851563 81.75 334.144531 83.25 330.730469 83.25 C 328.140625 83.25 326.078125 82.554688 324.550781 81.164063 C 323.019531 79.773438 322.257813 77.910156 322.257813 75.566406 C 322.257813 72.402344 323.703125 69.945313 326.59375 68.195313 C 329.484375 66.445313 334.371094 65.046875 341.257813 64 "/>
<path style=" stroke:none;fill-rule:nonzero;fill:rgb(92.89856%,0%,50.19989%);fill-opacity:1;" d="M 365.023438 55.125 C 368.246094 50.125 371.21875 47.625 373.9375 47.625 C 374.800781 47.625 375.933594 48.136719 377.335938 49.152344 C 378.738281 50.167969 379.46875 50.992188 379.523438 51.625 C 379.550781 52.027344 379.109375 52.765625 378.199219 53.84375 C 377.289063 54.921875 376.644531 55.476563 376.261719 55.5 C 376.066406 55.5 375.460938 55.1875 374.441406 54.554688 C 373.257813 53.769531 372.128906 53.375 371.054688 53.375 C 369.375 53.375 367.972656 53.984375 366.84375 55.199219 C 365.714844 56.417969 365.148438 57.933594 365.148438 59.75 L 365.148438 74.484375 C 365.148438 76.796875 365.457031 78.4375 366.074219 79.414063 C 366.691406 80.390625 367.769531 80.949219 369.3125 81.085938 L 371.453125 81.25 C 372.335938 81.304688 372.773438 81.578125 372.773438 82.0625 C 372.773438 82.605469 372.386719 82.875 371.617188 82.875 C 371.425781 82.875 356.785156 82.851563 356.515625 82.875 C 355.769531 82.902344 355.398438 82.652344 355.398438 82.121094 C 355.398438 81.691406 355.8125 81.402344 356.648438 81.25 C 357.808594 80.976563 358.558594 80.464844 358.894531 79.71875 C 359.230469 78.976563 359.398438 77.390625 359.398438 74.964844 L 359.398438 57.21875 C 359.398438 54.046875 357.890625 52.457031 354.867188 52.457031 L 353.472656 52.5 C 352.839844 52.5 352.523438 52.214844 352.523438 51.644531 C 352.523438 51.304688 352.730469 51.046875 353.140625 50.875 C 353.386719 50.820313 353.6875 50.777344 354.046875 50.75 C 356.621094 50.5 359.664063 49.28125 363.175781 47.085938 C 363.527344 46.890625 363.84375 46.777344 364.117188 46.75 C 364.746094 46.722656 365.0625 47.195313 365.0625 48.160156 L 365.023438 48.949219 L 365.023438 55.125 "/>
<path style=" stroke:none;fill-rule:nonzero;fill:rgb(92.89856%,0%,50.19989%);fill-opacity:1;" d="M 385.105469 59.375 L 399.199219 59.375 C 401.386719 59.375 402.480469 58.941406 402.480469 58.066406 C 402.480469 55.933594 401.546875 53.953125 399.675781 52.121094 C 397.804688 50.292969 395.773438 49.375 393.589844 49.375 C 391.3125 49.375 389.421875 50.273438 387.910156 52.0625 C 386.402344 53.851563 385.46875 56.289063 385.105469 59.375 Z M 384.898438 61.75 L 384.855469 62.65625 C 384.855469 67.339844 386.15625 71.273438 388.761719 74.464844 C 391.363281 77.65625 394.566406 79.25 398.367188 79.25 C 401.367188 79.25 404.632813 77.890625 408.160156 75.167969 C 408.378906 75 408.585938 74.902344 408.777344 74.875 C 409.164063 74.847656 409.355469 75.070313 409.355469 75.535156 C 409.355469 76.363281 408.394531 77.53125 406.464844 79.042969 C 402.882813 81.847656 399.09375 83.25 395.101563 83.25 C 390.609375 83.25 386.84375 81.550781 383.800781 78.152344 C 380.753906 74.75 379.230469 70.539063 379.230469 65.519531 C 379.230469 60.75 380.804688 56.574219 383.949219 52.996094 C 387.09375 49.417969 390.773438 47.625 394.996094 47.625 C 399.605469 47.625 403.285156 49.539063 406.046875 53.367188 C 406.707031 54.304688 407.382813 55.570313 408.070313 57.167969 C 408.761719 58.765625 409.105469 59.878906 409.105469 60.511719 C 409.105469 61.421875 408.210938 61.875 406.417969 61.875 L 403.355469 61.832031 L 400.539063 61.75 L 384.898438 61.75 "/>
<g clip-path="url(#clip1)" clip-rule="nonzero">
<path style=" stroke:none;fill-rule:nonzero;fill:rgb(97.999573%,83.499146%,89.7995%);fill-opacity:1;" d="M 3.640625 70.535156 C 3.640625 70.535156 27.828125 69.542969 70.097656 72.542969 C 112.371094 75.542969 172.730469 82.53125 245.070313 98.503906 C 245.070313 98.503906 274.648438 105.476563 309.757813 111.8125 C 344.871094 118.144531 385.515625 123.84375 407.644531 121.296875 C 407.644531 121.296875 400.664063 123.859375 375.882813 122.546875 C 351.101563 121.230469 308.519531 116.035156 237.308594 100.511719 C 215.472656 95.753906 194.789063 91.851563 175.425781 88.648438 C 131.628906 81.414063 94.546875 77.78125 66.027344 76.015625 C 24.898438 73.46875 1.566406 74.804688 1.566406 74.804688 L 2.605469 72.667969 L 3.640625 70.535156 "/>
</g>
<path style=" stroke:none;fill-rule:nonzero;fill:rgb(95.698547%,60.398865%,75.698853%);fill-opacity:1;" d="M 3.097656 70.453125 C 3.097656 70.453125 26.957031 68.75 69.238281 70.535156 C 111.523438 72.320313 172.230469 77.59375 245.929688 91.539063 C 245.929688 91.539063 276.117188 97.6875 311.710938 103.03125 C 347.308594 108.378906 388.3125 112.921875 409.9375 109.71875 C 409.9375 109.71875 403.332031 112.496094 378.601563 111.898438 C 353.863281 111.296875 311.003906 107.3125 238.480469 93.785156 C 216.242188 89.636719 195.257813 86.3125 175.660156 83.664063 C 131.34375 77.664063 94.128906 75.09375 65.632813 74.144531 C 24.535156 72.78125 1.570313 74.800781 1.570313 74.800781 L 2.332031 72.625 L 3.097656 70.453125 "/>
<g clip-path="url(#clip2)" clip-rule="nonzero">
<path style=" stroke:none;fill-rule:nonzero;fill:rgb(92.89856%,0%,50.19989%);fill-opacity:1;" d="M 2.457031 70.378906 C 2.457031 70.378906 25.824219 67.859375 67.933594 68.222656 C 110.039063 68.582031 170.886719 71.824219 245.835938 83.351563 C 245.835938 83.351563 276.601563 88.507813 312.597656 92.675781 C 348.601563 96.84375 389.835938 100.023438 410.777344 96.066406 C 410.777344 96.066406 404.644531 99.085938 380.074219 99.320313 C 355.507813 99.554688 312.511719 97.003906 238.785156 85.859375 C 216.179688 82.445313 194.929688 79.8125 175.152344 77.8125 C 130.425781 73.285156 93.222656 71.957031 64.882813 71.972656 C 24.007813 71.996094 1.566406 74.804688 1.566406 74.804688 C 1.566406 74.804688 -0.152344 74.738281 0.0117188 72.589844 C 0.0117188 70.644531 2.457031 70.378906 2.457031 70.378906 "/>
</g>
</g>
</svg>
